<svg width="500" height="67" viewBox="0 0 500 67" fill="none" xmlns="http://www.w3.org/2000/svg">
<path d="M490.111 22.7606C492.866 21.0327 496.025 20.0598 499.275 19.9397V31.1235C495.458 30.8631 491.658 31.8629 488.465 33.9693C487.176 35.0941 486.171 36.5087 485.532 38.0968C484.894 39.6849 484.641 41.4015 484.795 43.1059V63.9257H473.062V20.439H484.297V28.7767C485.71 26.3225 487.708 24.2558 490.111 22.7606Z" fill="white"/>
<path d="M448.698 20.6387C443.713 20.6404 438.839 22.1201 434.696 24.8906C430.55 27.6614 427.319 31.5985 425.411 36.2045C423.505 40.8104 423.005 45.8787 423.978 50.7686C424.951 55.6582 427.349 60.15 430.874 63.676L466.522 27.928C464.181 25.5933 461.401 23.7468 458.342 22.4955C455.282 21.2442 452.002 20.613 448.698 20.6387Z" fill="white"/>
<path d="M377.475 61.8537C374.225 59.8547 371.564 57.0292 369.762 53.6656C367.847 50.0926 366.884 46.0861 366.965 42.0327C366.886 37.9874 367.849 33.9896 369.762 30.4245C371.579 27.0854 374.24 24.2798 377.475 22.2863C380.634 20.3352 384.275 19.3142 387.985 19.3405C390.859 19.2868 393.708 19.8753 396.324 21.063C398.708 22.1616 400.797 23.8133 402.416 25.8809V0.742584H414.149V63.9257H402.416V58.3589C400.777 60.3938 398.693 62.0253 396.324 63.127C393.701 64.2918 390.856 64.8713 387.985 64.8245C384.272 64.8542 380.626 63.8238 377.475 61.8537ZM397.448 53.2163C399.332 52.1396 400.884 50.5686 401.941 48.673C403.064 46.6431 403.634 44.3525 403.589 42.0327C403.631 39.729 403.062 37.4552 401.941 35.4421C400.891 33.548 399.337 31.9834 397.448 30.9238C395.503 29.8418 393.307 29.2908 391.082 29.326C388.856 29.2978 386.663 29.8483 384.715 30.9238C382.849 31.9829 381.309 33.5381 380.272 35.4171C379.131 37.4233 378.552 39.7003 378.599 42.0077C378.55 44.3312 379.129 46.625 380.272 48.648C381.339 50.5517 382.911 52.1238 384.817 53.1913C386.76 54.2755 388.955 54.8347 391.181 54.8139C393.406 54.848 395.601 54.297 397.547 53.2163H397.448Z" fill="white"/>
<path d="M327.525 62.7025C324.691 61.4931 322.29 59.4572 320.634 56.8609C318.958 54.1478 318.092 51.0126 318.139 47.8243V20.439H329.822V47.1002C329.74 48.1614 329.908 49.2267 330.304 50.2139C330.703 51.2007 331.324 52.0829 332.116 52.7918C333.837 54.1332 335.98 54.8149 338.158 54.7141C340.423 54.8985 342.678 54.2507 344.5 52.8918C345.297 52.1851 345.921 51.304 346.324 50.3171C346.728 49.33 346.896 48.2634 346.822 47.2V20.439H358.555V47.899C358.621 51.0903 357.755 54.2319 356.057 56.9359C354.391 59.5337 351.983 61.5696 349.144 62.7775C345.718 64.2245 342.025 64.9225 338.309 64.8245C334.604 64.9002 330.923 64.1765 327.525 62.7025Z" fill="white"/>
<path d="M286.223 19.4614L263.522 42.1619L286.223 64.8624L308.923 42.1619L286.223 19.4614Z" fill="white"/>
<path d="M242.473 0.742584H254.205V63.9257H242.473V0.742584Z" fill="white"/>
<path d="M196.864 63.9257L178.715 43.3557V63.9257H167.007V0.742584H178.715V38.7124L195.216 20.439H209.396L190.448 40.8344L211.742 64.0007L196.864 63.9257Z" fill="white"/>
<path d="M149.782 22.7606C152.567 21.0202 155.762 20.047 159.044 19.9397V31.1235C155.235 30.8686 151.447 31.8681 148.259 33.9693C146.967 35.0928 145.958 36.5064 145.316 38.0943C144.674 39.6822 144.416 41.3995 144.565 43.1059V63.9257H132.857V20.439H144.041V28.7767C145.448 26.3428 147.416 24.28 149.782 22.7606Z" fill="white"/>
<path d="M123.52 36.5406H106.695V19.69H94.9618V36.5406H78.1113V48.2485H94.9618V65.099H106.695V48.2485H123.52V36.5406Z" fill="white"/>
<path d="M71.571 20.439L56.2433 63.9507H46.1079L35.798 34.7181L25.3881 63.9507H15.1779L0 20.439H12.3071L21.1443 49.247L31.629 20.439H39.9418L50.302 49.1473L59.1889 20.439H71.571Z" fill="white"/>
</svg>
