<svg width="500" height="149" viewBox="0 0 500 149" fill="none" xmlns="http://www.w3.org/2000/svg">
<g clip-path="url(#clip0_7_100)">
<path d="M441.079 0.834132C424.908 0.839825 409.102 5.6393 395.658 14.6259C382.215 23.6126 371.737 36.383 365.55 51.323C359.362 66.2631 357.742 82.7022 360.896 98.5618C364.049 114.423 371.833 128.992 383.265 140.429L498.892 24.4779C491.301 16.9053 482.282 10.9157 472.357 6.85694C462.433 2.79816 451.801 0.750954 441.079 0.834132Z" fill="white"/>
<path d="M253.307 0.831604L179.676 74.4624L253.307 148.093L326.938 74.4624L253.307 0.831604Z" fill="white"/>
<path d="M147.287 55.4875H92.7128V0.831665H54.6559V55.4875H0V93.4631H54.6559V148.119H92.7128V93.4631H147.287V55.4875Z" fill="white"/>
</g>
<defs>
<clipPath id="clip0_7_100">
<rect width="500" height="147.436" fill="white" transform="translate(0 0.831665)"/>
</clipPath>
</defs>
</svg>
